# xmcd
#
# Track frame offsets: 
#        150
#        14089
#        32515
#        46862
#        66759
#        84272
#        93652
#        107910
#        117615
#        136476
#        154018
#        179567
#        191682
#        201372
#
# Disc length: 2982 seconds
#
# Revision: 1
# Processed by: cddbd v1.5.1PL0 Copyright (c) Steve Scherf et al.
# Submitted via: ExactAudioCopy v0.95b2
#
DISCID=c70ba40e
DTITLE=Frank Black - Honeycomb
DYEAR=2005
DGENRE=Country
TTITLE0=Selkie Bride
TTITLE1=Burn Today
TTITLE2=Lone Child
TTITLE3=Another Velvet Nightmare
TTITLE4=Dark End Of The Street
TTITLE5=Go Find Your Saint
TTITLE6=Song Of The Shrimp
TTITLE7=Strange Goodbye
TTITLE8=Sunday Sunny Mill Valley Groove Day
TTITLE9=Honeycomb
TTITLE10=My Life Is In Storage
TTITLE11=Atom In My Heart
TTITLE12=Violet
TTITLE13=Sing For Joy
EXTD=YEAR: 2005
EXTT0=
EXTT1=
EXTT2=
EXTT3=
EXTT4=
EXTT5=
EXTT6=
EXTT7=
EXTT8=
EXTT9=
EXTT10=
EXTT11=
EXTT12=
EXTT13=
PLAYORDER=
